<svg width="590" height="193" viewBox="0 0 590 193" fill="none" xmlns="http://www.w3.org/2000/svg">
<rect x="4" width="525" height="193" rx="17" fill="white"/>
<circle cx="42" cy="96" r="9" fill="#6341EF"/>
<circle cx="489" cy="96" r="9" fill="#59C996"/>
<line x1="51" y1="95" x2="480" y2="95" stroke="#CECECE" stroke-width="2"/>
<circle cx="173" cy="96" r="9" fill="#40C2FC"/>
<circle cx="358" cy="96" r="9" fill="#FDB338"/>
<rect y="51" width="47" height="28" rx="5" fill="#6341EF"/>
<rect x="164" y="113" width="106" height="28" rx="5" fill="#40C2FC"/>
<rect x="349" y="51" width="106" height="28" rx="5" fill="#FDB338"/>
<rect x="484" y="113" width="106" height="28" rx="5" fill="#59C996"/>
<path d="M15.679 65.281L18.097 60.718H19.358L16.264 66.399V70H15.094V66.451L12 60.718H13.274L15.679 65.281ZM25.8788 66.503C25.8788 67.0837 25.8008 67.5993 25.6448 68.05C25.4975 68.492 25.2808 68.869 24.9948 69.181C24.7175 69.493 24.3752 69.7313 23.9678 69.896C23.5692 70.052 23.1228 70.13 22.6288 70.13C22.1695 70.13 21.7448 70.052 21.3548 69.896C20.9648 69.7313 20.6268 69.493 20.3408 69.181C20.0548 68.869 19.8295 68.492 19.6648 68.05C19.5088 67.5993 19.4308 67.0837 19.4308 66.503C19.4308 65.7317 19.5608 65.0817 19.8208 64.553C20.0808 64.0157 20.4535 63.6083 20.9388 63.331C21.4242 63.045 22.0005 62.902 22.6678 62.902C23.3005 62.902 23.8552 63.045 24.3318 63.331C24.8172 63.6083 25.1942 64.0157 25.4628 64.553C25.7402 65.0817 25.8788 65.7317 25.8788 66.503ZM20.6138 66.503C20.6138 67.049 20.6832 67.5257 20.8218 67.933C20.9692 68.3317 21.1945 68.6393 21.4978 68.856C21.8012 69.0727 22.1868 69.181 22.6548 69.181C23.1228 69.181 23.5085 69.0727 23.8118 68.856C24.1152 68.6393 24.3362 68.3317 24.4748 67.933C24.6222 67.5257 24.6958 67.049 24.6958 66.503C24.6958 65.9483 24.6222 65.476 24.4748 65.086C24.3275 64.696 24.1022 64.397 23.7988 64.189C23.5042 63.9723 23.1185 63.864 22.6418 63.864C21.9312 63.864 21.4155 64.098 21.0948 64.566C20.7742 65.034 20.6138 65.6797 20.6138 66.503ZM33.5159 63.032V70H32.5799L32.4109 69.077H32.3589C32.2116 69.3197 32.0209 69.519 31.7869 69.675C31.5529 69.831 31.2972 69.9437 31.0199 70.013C30.7426 70.091 30.4522 70.13 30.1489 70.13C29.5942 70.13 29.1262 70.0433 28.7449 69.87C28.3722 69.688 28.0906 69.4107 27.8999 69.038C27.7092 68.6653 27.6139 68.1843 27.6139 67.595V63.032H28.7709V67.517C28.7709 68.0717 28.8966 68.4877 29.1479 68.765C29.3992 69.0423 29.7892 69.181 30.3179 69.181C30.8379 69.181 31.2452 69.0857 31.5399 68.895C31.8432 68.6957 32.0556 68.4097 32.1769 68.037C32.3069 67.6557 32.3719 67.1963 32.3719 66.659V63.032H33.5159Z" fill="white"/>
<path d="M185.995 130L185.049 127.569H181.936L181.001 130H180L183.069 122.113H183.96L187.018 130H185.995ZM183.872 124.313C183.85 124.254 183.813 124.148 183.762 123.994C183.711 123.84 183.659 123.682 183.608 123.521C183.564 123.352 183.527 123.224 183.498 123.136C183.461 123.283 183.421 123.433 183.377 123.587C183.34 123.734 183.3 123.869 183.256 123.994C183.219 124.119 183.186 124.225 183.157 124.313L182.266 126.689H184.752L183.872 124.313ZM190.798 123.994C191.502 123.994 192.034 124.166 192.393 124.511C192.753 124.848 192.932 125.398 192.932 126.161V130H191.975V126.227C191.975 125.75 191.869 125.395 191.656 125.16C191.444 124.925 191.11 124.808 190.655 124.808C190.003 124.808 189.552 124.991 189.302 125.358C189.053 125.725 188.928 126.253 188.928 126.942V130H187.96V124.104H188.741L188.884 124.907H188.939C189.071 124.702 189.233 124.533 189.423 124.401C189.621 124.262 189.838 124.159 190.072 124.093C190.307 124.027 190.549 123.994 190.798 123.994ZM199.886 127.041C199.886 127.532 199.82 127.969 199.688 128.35C199.564 128.724 199.38 129.043 199.138 129.307C198.904 129.571 198.614 129.773 198.269 129.912C197.932 130.044 197.554 130.11 197.136 130.11C196.748 130.11 196.388 130.044 196.058 129.912C195.728 129.773 195.442 129.571 195.2 129.307C194.958 129.043 194.768 128.724 194.628 128.35C194.496 127.969 194.43 127.532 194.43 127.041C194.43 126.388 194.54 125.838 194.76 125.391C194.98 124.936 195.296 124.592 195.706 124.357C196.117 124.115 196.605 123.994 197.169 123.994C197.705 123.994 198.174 124.115 198.577 124.357C198.988 124.592 199.307 124.936 199.534 125.391C199.769 125.838 199.886 126.388 199.886 127.041ZM195.431 127.041C195.431 127.503 195.49 127.906 195.607 128.251C195.732 128.588 195.923 128.849 196.179 129.032C196.436 129.215 196.762 129.307 197.158 129.307C197.554 129.307 197.881 129.215 198.137 129.032C198.394 128.849 198.581 128.588 198.698 128.251C198.823 127.906 198.885 127.503 198.885 127.041C198.885 126.572 198.823 126.172 198.698 125.842C198.574 125.512 198.383 125.259 198.126 125.083C197.877 124.9 197.551 124.808 197.147 124.808C196.546 124.808 196.11 125.006 195.838 125.402C195.567 125.798 195.431 126.344 195.431 127.041ZM204.258 123.994C204.962 123.994 205.494 124.166 205.853 124.511C206.213 124.848 206.392 125.398 206.392 126.161V130H205.435V126.227C205.435 125.75 205.329 125.395 205.116 125.16C204.904 124.925 204.57 124.808 204.115 124.808C203.463 124.808 203.012 124.991 202.762 125.358C202.513 125.725 202.388 126.253 202.388 126.942V130H201.42V124.104H202.201L202.344 124.907H202.399C202.531 124.702 202.693 124.533 202.883 124.401C203.081 124.262 203.298 124.159 203.532 124.093C203.767 124.027 204.009 123.994 204.258 123.994ZM207.296 124.104H208.33L209.606 127.459C209.679 127.657 209.745 127.848 209.804 128.031C209.87 128.214 209.929 128.394 209.98 128.57C210.031 128.739 210.072 128.904 210.101 129.065H210.145C210.189 128.882 210.259 128.643 210.354 128.35C210.449 128.049 210.548 127.749 210.651 127.448L211.85 124.104H212.895L210.354 130.814C210.215 131.181 210.05 131.5 209.859 131.771C209.676 132.05 209.448 132.262 209.177 132.409C208.913 132.563 208.59 132.64 208.209 132.64C208.033 132.64 207.879 132.629 207.747 132.607C207.615 132.592 207.501 132.574 207.406 132.552V131.782C207.487 131.797 207.582 131.811 207.692 131.826C207.809 131.841 207.93 131.848 208.055 131.848C208.282 131.848 208.477 131.804 208.638 131.716C208.807 131.635 208.95 131.514 209.067 131.353C209.184 131.199 209.283 131.016 209.364 130.803L209.672 130.022L207.296 124.104ZM220.296 123.994C220.963 123.994 221.462 124.166 221.792 124.511C222.122 124.848 222.287 125.398 222.287 126.161V130H221.33V126.205C221.33 125.743 221.231 125.395 221.033 125.16C220.842 124.925 220.541 124.808 220.131 124.808C219.559 124.808 219.148 124.973 218.899 125.303C218.657 125.633 218.536 126.113 218.536 126.744V130H217.579V126.205C217.579 125.897 217.535 125.64 217.447 125.435C217.359 125.222 217.227 125.065 217.051 124.962C216.875 124.859 216.647 124.808 216.369 124.808C215.973 124.808 215.661 124.892 215.434 125.061C215.206 125.222 215.041 125.461 214.939 125.776C214.843 126.091 214.796 126.48 214.796 126.942V130H213.828V124.104H214.609L214.752 124.907H214.807C214.931 124.702 215.082 124.533 215.258 124.401C215.441 124.262 215.643 124.159 215.863 124.093C216.083 124.027 216.31 123.994 216.545 123.994C216.999 123.994 217.377 124.075 217.678 124.236C217.986 124.397 218.209 124.647 218.349 124.984H218.404C218.602 124.647 218.869 124.397 219.207 124.236C219.551 124.075 219.914 123.994 220.296 123.994ZM229.234 127.041C229.234 127.532 229.168 127.969 229.036 128.35C228.911 128.724 228.728 129.043 228.486 129.307C228.251 129.571 227.962 129.773 227.617 129.912C227.28 130.044 226.902 130.11 226.484 130.11C226.095 130.11 225.736 130.044 225.406 129.912C225.076 129.773 224.79 129.571 224.548 129.307C224.306 129.043 224.115 128.724 223.976 128.35C223.844 127.969 223.778 127.532 223.778 127.041C223.778 126.388 223.888 125.838 224.108 125.391C224.328 124.936 224.643 124.592 225.054 124.357C225.465 124.115 225.952 123.994 226.517 123.994C227.052 123.994 227.522 124.115 227.925 124.357C228.336 124.592 228.655 124.936 228.882 125.391C229.117 125.838 229.234 126.388 229.234 127.041ZM224.779 127.041C224.779 127.503 224.838 127.906 224.955 128.251C225.08 128.588 225.27 128.849 225.527 129.032C225.784 129.215 226.11 129.307 226.506 129.307C226.902 129.307 227.228 129.215 227.485 129.032C227.742 128.849 227.929 128.588 228.046 128.251C228.171 127.906 228.233 127.503 228.233 127.041C228.233 126.572 228.171 126.172 228.046 125.842C227.921 125.512 227.731 125.259 227.474 125.083C227.225 124.9 226.898 124.808 226.495 124.808C225.894 124.808 225.457 125.006 225.186 125.402C224.915 125.798 224.779 126.344 224.779 127.041ZM235.696 124.104V130H234.904L234.761 129.219H234.717C234.592 129.424 234.431 129.593 234.233 129.725C234.035 129.857 233.819 129.952 233.584 130.011C233.349 130.077 233.104 130.11 232.847 130.11C232.378 130.11 231.982 130.037 231.659 129.89C231.344 129.736 231.105 129.501 230.944 129.186C230.783 128.871 230.702 128.464 230.702 127.965V124.104H231.681V127.899C231.681 128.368 231.787 128.72 232 128.955C232.213 129.19 232.543 129.307 232.99 129.307C233.43 129.307 233.775 129.226 234.024 129.065C234.281 128.896 234.46 128.654 234.563 128.339C234.673 128.016 234.728 127.628 234.728 127.173V124.104H235.696ZM241.407 128.372C241.407 128.753 241.311 129.072 241.121 129.329C240.93 129.586 240.659 129.78 240.307 129.912C239.955 130.044 239.537 130.11 239.053 130.11C238.642 130.11 238.286 130.077 237.986 130.011C237.692 129.945 237.432 129.853 237.205 129.736V128.856C237.439 128.973 237.722 129.083 238.052 129.186C238.389 129.281 238.73 129.329 239.075 129.329C239.566 129.329 239.922 129.252 240.142 129.098C240.362 128.937 240.472 128.724 240.472 128.46C240.472 128.313 240.431 128.181 240.351 128.064C240.27 127.947 240.123 127.829 239.911 127.712C239.705 127.595 239.408 127.463 239.02 127.316C238.638 127.169 238.312 127.023 238.041 126.876C237.769 126.729 237.56 126.553 237.414 126.348C237.267 126.143 237.194 125.879 237.194 125.556C237.194 125.057 237.395 124.672 237.799 124.401C238.209 124.13 238.745 123.994 239.405 123.994C239.764 123.994 240.098 124.031 240.406 124.104C240.721 124.17 241.014 124.265 241.286 124.39L240.956 125.16C240.794 125.087 240.622 125.024 240.439 124.973C240.263 124.914 240.083 124.87 239.9 124.841C239.716 124.804 239.529 124.786 239.339 124.786C238.943 124.786 238.638 124.852 238.426 124.984C238.22 125.109 238.118 125.281 238.118 125.501C238.118 125.662 238.165 125.802 238.261 125.919C238.356 126.029 238.514 126.139 238.734 126.249C238.961 126.352 239.262 126.476 239.636 126.623C240.01 126.762 240.329 126.905 240.593 127.052C240.857 127.199 241.058 127.378 241.198 127.591C241.337 127.796 241.407 128.057 241.407 128.372ZM248.659 130H247.713V124.511C247.713 124.298 247.713 124.119 247.713 123.972C247.72 123.825 247.728 123.69 247.735 123.565C247.742 123.433 247.75 123.297 247.757 123.158C247.64 123.275 247.533 123.374 247.438 123.455C247.343 123.536 247.222 123.638 247.075 123.763L246.239 124.445L245.733 123.796L247.856 122.146H248.659V130Z" fill="white"/>
<path d="M370.995 68L370.049 65.569H366.936L366.001 68H365L368.069 60.113H368.96L372.018 68H370.995ZM368.872 62.313C368.85 62.2543 368.813 62.148 368.762 61.994C368.711 61.84 368.659 61.6823 368.608 61.521C368.564 61.3523 368.527 61.224 368.498 61.136C368.461 61.2827 368.421 61.433 368.377 61.587C368.34 61.7337 368.3 61.8693 368.256 61.994C368.219 62.1187 368.186 62.225 368.157 62.313L367.266 64.689H369.752L368.872 62.313ZM375.798 61.994C376.502 61.994 377.034 62.1663 377.393 62.511C377.753 62.8483 377.932 63.3983 377.932 64.161V68H376.975V64.227C376.975 63.7503 376.869 63.3947 376.656 63.16C376.444 62.9253 376.11 62.808 375.655 62.808C375.003 62.808 374.552 62.9913 374.302 63.358C374.053 63.7247 373.928 64.2527 373.928 64.942V68H372.96V62.104H373.741L373.884 62.907H373.939C374.071 62.7017 374.233 62.533 374.423 62.401C374.621 62.2617 374.838 62.159 375.072 62.093C375.307 62.027 375.549 61.994 375.798 61.994ZM384.886 65.041C384.886 65.5323 384.82 65.9687 384.688 66.35C384.564 66.724 384.38 67.043 384.138 67.307C383.904 67.571 383.614 67.7727 383.269 67.912C382.932 68.044 382.554 68.11 382.136 68.11C381.748 68.11 381.388 68.044 381.058 67.912C380.728 67.7727 380.442 67.571 380.2 67.307C379.958 67.043 379.768 66.724 379.628 66.35C379.496 65.9687 379.43 65.5323 379.43 65.041C379.43 64.3883 379.54 63.8383 379.76 63.391C379.98 62.9363 380.296 62.5917 380.706 62.357C381.117 62.115 381.605 61.994 382.169 61.994C382.705 61.994 383.174 62.115 383.577 62.357C383.988 62.5917 384.307 62.9363 384.534 63.391C384.769 63.8383 384.886 64.3883 384.886 65.041ZM380.431 65.041C380.431 65.503 380.49 65.9063 380.607 66.251C380.732 66.5883 380.923 66.8487 381.179 67.032C381.436 67.2153 381.762 67.307 382.158 67.307C382.554 67.307 382.881 67.2153 383.137 67.032C383.394 66.8487 383.581 66.5883 383.698 66.251C383.823 65.9063 383.885 65.503 383.885 65.041C383.885 64.5717 383.823 64.172 383.698 63.842C383.574 63.512 383.383 63.259 383.126 63.083C382.877 62.8997 382.551 62.808 382.147 62.808C381.546 62.808 381.11 63.006 380.838 63.402C380.567 63.798 380.431 64.3443 380.431 65.041ZM389.258 61.994C389.962 61.994 390.494 62.1663 390.853 62.511C391.213 62.8483 391.392 63.3983 391.392 64.161V68H390.435V64.227C390.435 63.7503 390.329 63.3947 390.116 63.16C389.904 62.9253 389.57 62.808 389.115 62.808C388.463 62.808 388.012 62.9913 387.762 63.358C387.513 63.7247 387.388 64.2527 387.388 64.942V68H386.42V62.104H387.201L387.344 62.907H387.399C387.531 62.7017 387.693 62.533 387.883 62.401C388.081 62.2617 388.298 62.159 388.532 62.093C388.767 62.027 389.009 61.994 389.258 61.994ZM392.296 62.104H393.33L394.606 65.459C394.679 65.657 394.745 65.8477 394.804 66.031C394.87 66.2143 394.929 66.394 394.98 66.57C395.031 66.7387 395.072 66.9037 395.101 67.065H395.145C395.189 66.8817 395.259 66.6433 395.354 66.35C395.449 66.0493 395.548 65.7487 395.651 65.448L396.85 62.104H397.895L395.354 68.814C395.215 69.1807 395.05 69.4997 394.859 69.771C394.676 70.0497 394.448 70.2623 394.177 70.409C393.913 70.563 393.59 70.64 393.209 70.64C393.033 70.64 392.879 70.629 392.747 70.607C392.615 70.5923 392.501 70.574 392.406 70.552V69.782C392.487 69.7967 392.582 69.8113 392.692 69.826C392.809 69.8407 392.93 69.848 393.055 69.848C393.282 69.848 393.477 69.804 393.638 69.716C393.807 69.6353 393.95 69.5143 394.067 69.353C394.184 69.199 394.283 69.0157 394.364 68.803L394.672 68.022L392.296 62.104ZM405.296 61.994C405.963 61.994 406.462 62.1663 406.792 62.511C407.122 62.8483 407.287 63.3983 407.287 64.161V68H406.33V64.205C406.33 63.743 406.231 63.3947 406.033 63.16C405.842 62.9253 405.541 62.808 405.131 62.808C404.559 62.808 404.148 62.973 403.899 63.303C403.657 63.633 403.536 64.1133 403.536 64.744V68H402.579V64.205C402.579 63.897 402.535 63.6403 402.447 63.435C402.359 63.2223 402.227 63.0647 402.051 62.962C401.875 62.8593 401.647 62.808 401.369 62.808C400.973 62.808 400.661 62.8923 400.434 63.061C400.206 63.2223 400.041 63.4607 399.939 63.776C399.843 64.0913 399.796 64.48 399.796 64.942V68H398.828V62.104H399.609L399.752 62.907H399.807C399.931 62.7017 400.082 62.533 400.258 62.401C400.441 62.2617 400.643 62.159 400.863 62.093C401.083 62.027 401.31 61.994 401.545 61.994C401.999 61.994 402.377 62.0747 402.678 62.236C402.986 62.3973 403.209 62.6467 403.349 62.984H403.404C403.602 62.6467 403.869 62.3973 404.207 62.236C404.551 62.0747 404.914 61.994 405.296 61.994ZM414.234 65.041C414.234 65.5323 414.168 65.9687 414.036 66.35C413.911 66.724 413.728 67.043 413.486 67.307C413.251 67.571 412.962 67.7727 412.617 67.912C412.28 68.044 411.902 68.11 411.484 68.11C411.095 68.11 410.736 68.044 410.406 67.912C410.076 67.7727 409.79 67.571 409.548 67.307C409.306 67.043 409.115 66.724 408.976 66.35C408.844 65.9687 408.778 65.5323 408.778 65.041C408.778 64.3883 408.888 63.8383 409.108 63.391C409.328 62.9363 409.643 62.5917 410.054 62.357C410.465 62.115 410.952 61.994 411.517 61.994C412.052 61.994 412.522 62.115 412.925 62.357C413.336 62.5917 413.655 62.9363 413.882 63.391C414.117 63.8383 414.234 64.3883 414.234 65.041ZM409.779 65.041C409.779 65.503 409.838 65.9063 409.955 66.251C410.08 66.5883 410.27 66.8487 410.527 67.032C410.784 67.2153 411.11 67.307 411.506 67.307C411.902 67.307 412.228 67.2153 412.485 67.032C412.742 66.8487 412.929 66.5883 413.046 66.251C413.171 65.9063 413.233 65.503 413.233 65.041C413.233 64.5717 413.171 64.172 413.046 63.842C412.921 63.512 412.731 63.259 412.474 63.083C412.225 62.8997 411.898 62.808 411.495 62.808C410.894 62.808 410.457 63.006 410.186 63.402C409.915 63.798 409.779 64.3443 409.779 65.041ZM420.696 62.104V68H419.904L419.761 67.219H419.717C419.592 67.4243 419.431 67.593 419.233 67.725C419.035 67.857 418.819 67.9523 418.584 68.011C418.349 68.077 418.104 68.11 417.847 68.11C417.378 68.11 416.982 68.0367 416.659 67.89C416.344 67.736 416.105 67.5013 415.944 67.186C415.783 66.8707 415.702 66.4637 415.702 65.965V62.104H416.681V65.899C416.681 66.3683 416.787 66.7203 417 66.955C417.213 67.1897 417.543 67.307 417.99 67.307C418.43 67.307 418.775 67.2263 419.024 67.065C419.281 66.8963 419.46 66.6543 419.563 66.339C419.673 66.0163 419.728 65.6277 419.728 65.173V62.104H420.696ZM426.407 66.372C426.407 66.7533 426.311 67.0723 426.121 67.329C425.93 67.5857 425.659 67.78 425.307 67.912C424.955 68.044 424.537 68.11 424.053 68.11C423.642 68.11 423.286 68.077 422.986 68.011C422.692 67.945 422.432 67.8533 422.205 67.736V66.856C422.439 66.9733 422.722 67.0833 423.052 67.186C423.389 67.2813 423.73 67.329 424.075 67.329C424.566 67.329 424.922 67.252 425.142 67.098C425.362 66.9367 425.472 66.724 425.472 66.46C425.472 66.3133 425.431 66.1813 425.351 66.064C425.27 65.9467 425.123 65.8293 424.911 65.712C424.705 65.5947 424.408 65.4627 424.02 65.316C423.638 65.1693 423.312 65.0227 423.041 64.876C422.769 64.7293 422.56 64.5533 422.414 64.348C422.267 64.1427 422.194 63.8787 422.194 63.556C422.194 63.0573 422.395 62.6723 422.799 62.401C423.209 62.1297 423.745 61.994 424.405 61.994C424.764 61.994 425.098 62.0307 425.406 62.104C425.721 62.17 426.014 62.2653 426.286 62.39L425.956 63.16C425.794 63.0867 425.622 63.0243 425.439 62.973C425.263 62.9143 425.083 62.8703 424.9 62.841C424.716 62.8043 424.529 62.786 424.339 62.786C423.943 62.786 423.638 62.852 423.426 62.984C423.22 63.1087 423.118 63.281 423.118 63.501C423.118 63.6623 423.165 63.8017 423.261 63.919C423.356 64.029 423.514 64.139 423.734 64.249C423.961 64.3517 424.262 64.4763 424.636 64.623C425.01 64.7623 425.329 64.9053 425.593 65.052C425.857 65.1987 426.058 65.3783 426.198 65.591C426.337 65.7963 426.407 66.0567 426.407 66.372ZM435.474 68H430.282V67.197L432.339 65.118C432.735 64.722 433.069 64.37 433.34 64.062C433.611 63.754 433.817 63.4533 433.956 63.16C434.095 62.8593 434.165 62.533 434.165 62.181C434.165 61.7483 434.037 61.422 433.78 61.202C433.523 60.9747 433.19 60.861 432.779 60.861C432.398 60.861 432.06 60.927 431.767 61.059C431.481 61.191 431.188 61.3743 430.887 61.609L430.37 60.96C430.575 60.784 430.799 60.6263 431.041 60.487C431.29 60.3477 431.558 60.2377 431.844 60.157C432.137 60.0763 432.449 60.036 432.779 60.036C433.27 60.036 433.692 60.1203 434.044 60.289C434.396 60.4577 434.667 60.6997 434.858 61.015C435.056 61.323 435.155 61.6933 435.155 62.126C435.155 62.434 435.107 62.7273 435.012 63.006C434.917 63.2773 434.781 63.545 434.605 63.809C434.429 64.073 434.216 64.3407 433.967 64.612C433.718 64.8833 433.443 65.1657 433.142 65.459L431.503 67.076V67.12H435.474V68Z" fill="white"/>
<path d="M505.995 130L505.049 127.569H501.936L501.001 130H500L503.069 122.113H503.96L507.018 130H505.995ZM503.872 124.313C503.85 124.254 503.813 124.148 503.762 123.994C503.711 123.84 503.659 123.682 503.608 123.521C503.564 123.352 503.527 123.224 503.498 123.136C503.461 123.283 503.421 123.433 503.377 123.587C503.34 123.734 503.3 123.869 503.256 123.994C503.219 124.119 503.186 124.225 503.157 124.313L502.266 126.689H504.752L503.872 124.313ZM510.798 123.994C511.502 123.994 512.034 124.166 512.393 124.511C512.753 124.848 512.932 125.398 512.932 126.161V130H511.975V126.227C511.975 125.75 511.869 125.395 511.656 125.16C511.444 124.925 511.11 124.808 510.655 124.808C510.003 124.808 509.552 124.991 509.302 125.358C509.053 125.725 508.928 126.253 508.928 126.942V130H507.96V124.104H508.741L508.884 124.907H508.939C509.071 124.702 509.233 124.533 509.423 124.401C509.621 124.262 509.838 124.159 510.072 124.093C510.307 124.027 510.549 123.994 510.798 123.994ZM519.886 127.041C519.886 127.532 519.82 127.969 519.688 128.35C519.564 128.724 519.38 129.043 519.138 129.307C518.904 129.571 518.614 129.773 518.269 129.912C517.932 130.044 517.554 130.11 517.136 130.11C516.748 130.11 516.388 130.044 516.058 129.912C515.728 129.773 515.442 129.571 515.2 129.307C514.958 129.043 514.768 128.724 514.628 128.35C514.496 127.969 514.43 127.532 514.43 127.041C514.43 126.388 514.54 125.838 514.76 125.391C514.98 124.936 515.296 124.592 515.706 124.357C516.117 124.115 516.605 123.994 517.169 123.994C517.705 123.994 518.174 124.115 518.577 124.357C518.988 124.592 519.307 124.936 519.534 125.391C519.769 125.838 519.886 126.388 519.886 127.041ZM515.431 127.041C515.431 127.503 515.49 127.906 515.607 128.251C515.732 128.588 515.923 128.849 516.179 129.032C516.436 129.215 516.762 129.307 517.158 129.307C517.554 129.307 517.881 129.215 518.137 129.032C518.394 128.849 518.581 128.588 518.698 128.251C518.823 127.906 518.885 127.503 518.885 127.041C518.885 126.572 518.823 126.172 518.698 125.842C518.574 125.512 518.383 125.259 518.126 125.083C517.877 124.9 517.551 124.808 517.147 124.808C516.546 124.808 516.11 125.006 515.838 125.402C515.567 125.798 515.431 126.344 515.431 127.041ZM524.258 123.994C524.962 123.994 525.494 124.166 525.853 124.511C526.213 124.848 526.392 125.398 526.392 126.161V130H525.435V126.227C525.435 125.75 525.329 125.395 525.116 125.16C524.904 124.925 524.57 124.808 524.115 124.808C523.463 124.808 523.012 124.991 522.762 125.358C522.513 125.725 522.388 126.253 522.388 126.942V130H521.42V124.104H522.201L522.344 124.907H522.399C522.531 124.702 522.693 124.533 522.883 124.401C523.081 124.262 523.298 124.159 523.532 124.093C523.767 124.027 524.009 123.994 524.258 123.994ZM527.296 124.104H528.33L529.606 127.459C529.679 127.657 529.745 127.848 529.804 128.031C529.87 128.214 529.929 128.394 529.98 128.57C530.031 128.739 530.072 128.904 530.101 129.065H530.145C530.189 128.882 530.259 128.643 530.354 128.35C530.449 128.049 530.548 127.749 530.651 127.448L531.85 124.104H532.895L530.354 130.814C530.215 131.181 530.05 131.5 529.859 131.771C529.676 132.05 529.448 132.262 529.177 132.409C528.913 132.563 528.59 132.64 528.209 132.64C528.033 132.64 527.879 132.629 527.747 132.607C527.615 132.592 527.501 132.574 527.406 132.552V131.782C527.487 131.797 527.582 131.811 527.692 131.826C527.809 131.841 527.93 131.848 528.055 131.848C528.282 131.848 528.477 131.804 528.638 131.716C528.807 131.635 528.95 131.514 529.067 131.353C529.184 131.199 529.283 131.016 529.364 130.803L529.672 130.022L527.296 124.104ZM540.296 123.994C540.963 123.994 541.462 124.166 541.792 124.511C542.122 124.848 542.287 125.398 542.287 126.161V130H541.33V126.205C541.33 125.743 541.231 125.395 541.033 125.16C540.842 124.925 540.541 124.808 540.131 124.808C539.559 124.808 539.148 124.973 538.899 125.303C538.657 125.633 538.536 126.113 538.536 126.744V130H537.579V126.205C537.579 125.897 537.535 125.64 537.447 125.435C537.359 125.222 537.227 125.065 537.051 124.962C536.875 124.859 536.647 124.808 536.369 124.808C535.973 124.808 535.661 124.892 535.434 125.061C535.206 125.222 535.041 125.461 534.939 125.776C534.843 126.091 534.796 126.48 534.796 126.942V130H533.828V124.104H534.609L534.752 124.907H534.807C534.931 124.702 535.082 124.533 535.258 124.401C535.441 124.262 535.643 124.159 535.863 124.093C536.083 124.027 536.31 123.994 536.545 123.994C536.999 123.994 537.377 124.075 537.678 124.236C537.986 124.397 538.209 124.647 538.349 124.984H538.404C538.602 124.647 538.869 124.397 539.207 124.236C539.551 124.075 539.914 123.994 540.296 123.994ZM549.234 127.041C549.234 127.532 549.168 127.969 549.036 128.35C548.911 128.724 548.728 129.043 548.486 129.307C548.251 129.571 547.962 129.773 547.617 129.912C547.28 130.044 546.902 130.11 546.484 130.11C546.095 130.11 545.736 130.044 545.406 129.912C545.076 129.773 544.79 129.571 544.548 129.307C544.306 129.043 544.115 128.724 543.976 128.35C543.844 127.969 543.778 127.532 543.778 127.041C543.778 126.388 543.888 125.838 544.108 125.391C544.328 124.936 544.643 124.592 545.054 124.357C545.465 124.115 545.952 123.994 546.517 123.994C547.052 123.994 547.522 124.115 547.925 124.357C548.336 124.592 548.655 124.936 548.882 125.391C549.117 125.838 549.234 126.388 549.234 127.041ZM544.779 127.041C544.779 127.503 544.838 127.906 544.955 128.251C545.08 128.588 545.27 128.849 545.527 129.032C545.784 129.215 546.11 129.307 546.506 129.307C546.902 129.307 547.228 129.215 547.485 129.032C547.742 128.849 547.929 128.588 548.046 128.251C548.171 127.906 548.233 127.503 548.233 127.041C548.233 126.572 548.171 126.172 548.046 125.842C547.921 125.512 547.731 125.259 547.474 125.083C547.225 124.9 546.898 124.808 546.495 124.808C545.894 124.808 545.457 125.006 545.186 125.402C544.915 125.798 544.779 126.344 544.779 127.041ZM555.696 124.104V130H554.904L554.761 129.219H554.717C554.592 129.424 554.431 129.593 554.233 129.725C554.035 129.857 553.819 129.952 553.584 130.011C553.349 130.077 553.104 130.11 552.847 130.11C552.378 130.11 551.982 130.037 551.659 129.89C551.344 129.736 551.105 129.501 550.944 129.186C550.783 128.871 550.702 128.464 550.702 127.965V124.104H551.681V127.899C551.681 128.368 551.787 128.72 552 128.955C552.213 129.19 552.543 129.307 552.99 129.307C553.43 129.307 553.775 129.226 554.024 129.065C554.281 128.896 554.46 128.654 554.563 128.339C554.673 128.016 554.728 127.628 554.728 127.173V124.104H555.696ZM561.407 128.372C561.407 128.753 561.311 129.072 561.121 129.329C560.93 129.586 560.659 129.78 560.307 129.912C559.955 130.044 559.537 130.11 559.053 130.11C558.642 130.11 558.286 130.077 557.986 130.011C557.692 129.945 557.432 129.853 557.205 129.736V128.856C557.439 128.973 557.722 129.083 558.052 129.186C558.389 129.281 558.73 129.329 559.075 129.329C559.566 129.329 559.922 129.252 560.142 129.098C560.362 128.937 560.472 128.724 560.472 128.46C560.472 128.313 560.431 128.181 560.351 128.064C560.27 127.947 560.123 127.829 559.911 127.712C559.705 127.595 559.408 127.463 559.02 127.316C558.638 127.169 558.312 127.023 558.041 126.876C557.769 126.729 557.56 126.553 557.414 126.348C557.267 126.143 557.194 125.879 557.194 125.556C557.194 125.057 557.395 124.672 557.799 124.401C558.209 124.13 558.745 123.994 559.405 123.994C559.764 123.994 560.098 124.031 560.406 124.104C560.721 124.17 561.014 124.265 561.286 124.39L560.956 125.16C560.794 125.087 560.622 125.024 560.439 124.973C560.263 124.914 560.083 124.87 559.9 124.841C559.716 124.804 559.529 124.786 559.339 124.786C558.943 124.786 558.638 124.852 558.426 124.984C558.22 125.109 558.118 125.281 558.118 125.501C558.118 125.662 558.165 125.802 558.261 125.919C558.356 126.029 558.514 126.139 558.734 126.249C558.961 126.352 559.262 126.476 559.636 126.623C560.01 126.762 560.329 126.905 560.593 127.052C560.857 127.199 561.058 127.378 561.198 127.591C561.337 127.796 561.407 128.057 561.407 128.372ZM570.177 123.983C570.177 124.335 570.111 124.639 569.979 124.896C569.847 125.153 569.656 125.362 569.407 125.523C569.165 125.684 568.879 125.798 568.549 125.864V125.908C569.18 125.981 569.649 126.179 569.957 126.502C570.265 126.825 570.419 127.246 570.419 127.767C570.419 128.222 570.313 128.629 570.1 128.988C569.887 129.34 569.557 129.615 569.11 129.813C568.67 130.011 568.102 130.11 567.405 130.11C566.994 130.11 566.613 130.077 566.261 130.011C565.909 129.952 565.572 129.842 565.249 129.681V128.779C565.579 128.94 565.935 129.069 566.316 129.164C566.697 129.252 567.064 129.296 567.416 129.296C568.12 129.296 568.626 129.16 568.934 128.889C569.249 128.61 569.407 128.229 569.407 127.745C569.407 127.415 569.319 127.151 569.143 126.953C568.974 126.748 568.725 126.597 568.395 126.502C568.065 126.407 567.669 126.359 567.207 126.359H566.448V125.534H567.218C567.651 125.534 568.01 125.472 568.296 125.347C568.589 125.222 568.809 125.05 568.956 124.83C569.11 124.603 569.187 124.342 569.187 124.049C569.187 123.668 569.059 123.374 568.802 123.169C568.545 122.956 568.197 122.85 567.757 122.85C567.478 122.85 567.225 122.879 566.998 122.938C566.771 122.989 566.558 123.066 566.36 123.169C566.169 123.264 565.975 123.378 565.777 123.51L565.293 122.85C565.484 122.703 565.7 122.568 565.942 122.443C566.191 122.318 566.466 122.219 566.767 122.146C567.068 122.073 567.394 122.036 567.746 122.036C568.567 122.036 569.176 122.219 569.572 122.586C569.975 122.953 570.177 123.418 570.177 123.983Z" fill="white"/>
</svg>
