<svg width="124" height="178" viewBox="0 0 124 178" fill="none" xmlns="http://www.w3.org/2000/svg">
<path d="M123 61C123 44.8218 116.573 29.3062 105.134 17.8665C93.6938 6.42677 78.1782 1.22142e-06 62 0C45.8218 -1.22142e-06 30.3062 6.42676 18.8665 17.8665C7.42677 29.3062 1 44.8218 1 61L62 61H123Z" fill="#DBC0F3"/>
<circle cx="62" cy="157" r="21" fill="#BB99D9"/>
<circle cx="102" cy="157" r="21" fill="#BB99D9"/>
<circle cx="22" cy="157" r="21" fill="#BB99D9"/>
<path d="M1 61H123V155C123 158.314 120.314 161 117 161H7C3.68629 161 1 158.314 1 155V61Z" fill="#DBC0F3"/>
<path d="M40 143C27 159.5 10 161.5 1 143V161H119L122.5 143C109.5 162 93.5 160.5 79.5 143C74.5 160.5 54.5 166.5 40 143Z" fill="#BB99D9"/>
<path d="M1.57361 160.489C1.62946 161.047 2.40138 161.632 2.64765 162.125C2.9315 162.692 3.29596 162.979 3.50689 163.612" stroke="#BB99D9" stroke-linecap="round"/>
<path d="M1.42487 160.935C1.80085 161.029 2.40815 162.192 2.73024 162.455C3.19857 162.838 3.76599 163.485 4.25043 163.727C4.53785 163.871 4.68282 164.339 5.06009 164.339C5.30407 164.339 4.85544 163.331 4.84528 163.199C4.79354 162.526 4.10118 161.447 3.62252 160.968C3.3529 160.698 2.16843 160.284 2.16843 160.935C2.16843 161.487 1.92809 162.174 2.61458 162.538C2.97216 162.727 3.29552 163.467 3.62252 163.794C4.03722 164.208 4.53958 164.355 5.14271 164.355" stroke="#BB99D9" stroke-linecap="round"/>
<path d="M122.541 143.988V157.961" stroke="#BB99D9" stroke-linecap="round"/>
<path d="M121.842 145.967V158.427" stroke="#BB99D9" stroke-linecap="round"/>
<path d="M121.027 149.169V158.776" stroke="#BB99D9" stroke-linecap="round"/>
<path d="M120.212 153.012V159.591" stroke="#BB99D9" stroke-linecap="round"/>
<path d="M119.339 158.194C119.584 158.711 119.771 159.27 119.947 159.815C119.987 159.94 120.037 160.334 120.037 159.954C120.037 159.462 120.037 158.97 120.037 158.479C120.037 157.765 120.109 158.712 119.843 158.76C119.647 158.796 119.58 157.054 119.575 156.903C119.561 156.517 119.577 156.597 119.568 156.955C119.548 157.755 119.396 158.539 119.348 159.336C119.311 159.959 119.361 159.665 119.494 159.31C119.681 158.81 119.798 158.291 119.976 157.79C120.118 157.389 120.221 157.931 120.235 158.071C120.305 158.774 120.27 159.491 120.27 160.196C120.27 160.569 120.169 160.642 119.866 160.869C119.644 161.035 119.6 160.637 119.455 160.549C119.3 160.455 119.147 160.318 119.248 160.115C119.528 159.556 120.377 159.176 120.885 158.88C121.117 158.744 121.429 158.62 121.629 158.44C121.635 158.434 121.758 158.253 121.758 158.349C121.758 158.707 121.473 159.13 121.202 159.346C121.045 159.47 120.86 159.619 121.144 159.462C121.365 159.339 121.846 159.119 121.959 158.893" stroke="#BB99D9" stroke-width="2"/>
<circle cx="34.5" cy="63.5" r="12.5" fill="white"/>
<circle cx="85.5" cy="63.5" r="12.5" fill="white"/>
<circle cx="34.5" cy="63.5" r="9.5" fill="#350F0F"/>
<circle cx="85.5" cy="63.5" r="9.5" fill="#350F0F"/>
<mask id="path-18-inside-1_107_62" fill="white">
<path d="M73 73C73 76.0933 71.897 79.0852 69.8891 81.4383C67.8813 83.7914 65.1001 85.3514 62.0454 85.8381C58.9906 86.3248 55.8624 85.7062 53.2227 84.0936C50.583 82.481 48.6049 79.98 47.6436 77.0398L60 73H73Z"/>
</mask>
<path d="M73 73C73 76.0933 71.897 79.0852 69.8891 81.4383C67.8813 83.7914 65.1001 85.3514 62.0454 85.8381C58.9906 86.3248 55.8624 85.7062 53.2227 84.0936C50.583 82.481 48.6049 79.98 47.6436 77.0398L60 73H73Z" stroke="black" stroke-width="2" mask="url(#path-18-inside-1_107_62)"/>
<path d="M49.9988 76.3545C49.6793 76.3545 50.644 76.4046 50.9439 76.5151C51.2049 76.6112 51.5561 76.7992 51.8334 76.7992C52.1113 76.7992 52.3893 76.7992 52.6672 76.7992C53.1762 76.7992 53.3209 76.9198 53.2293 76.4162C53.1422 75.9367 53.4058 75.3864 53.7729 75.0882C54.4389 74.547 54.2238 75.9259 54.2238 76.2742C54.2238 77.0739 54.1563 76.8038 53.7235 76.3483C53.4304 76.0397 53.3486 75.6873 52.8896 75.6873C52.6671 75.6873 51.6947 75.465 52.136 75.465C53.0817 75.465 53.4623 75.7041 54.1127 76.3545C54.5619 76.8036 54.8116 77.8205 55.3357 78.1087C55.8462 78.3895 55.6548 77.1635 55.6198 76.9969C55.4615 76.2425 55.1788 73.9499 55.3604 74.699C55.5188 75.3524 55.482 77.9841 54.1621 77.5281C52.9707 77.1165 53.2735 75.5168 54.1497 75.0202C54.8858 74.6031 57.2672 74.0576 57.4853 75.3661C57.5922 76.0075 56.5181 77.3544 56.4537 76.4533C56.3729 75.3212 57.671 74.5746 58.7083 74.7608C60.0233 74.9968 58.5431 76.5521 57.7447 76.5521C57.2107 76.5521 57.2146 75.7456 57.3123 75.3723C57.4981 74.6629 58.4459 74.3148 59.0666 74.1493C59.6769 73.9865 60.6187 73.758 61.2532 73.9331C62.0819 74.1617 60.508 75.2468 60.3452 75.3291C59.6701 75.6704 58.9434 75.8054 58.1895 75.8109C57.6049 75.8152 56.5063 75.849 56.046 75.3723C55.295 74.5944 56.4 73.346 57.1147 73.0745C57.9078 72.7731 61.4598 72.2671 61.1544 73.7107C61.0522 74.1939 60.8505 74.7003 60.3885 74.9461C60.1064 75.0961 60.4093 74.7749 60.4193 74.767C60.8133 74.4559 61.2959 74.2488 61.7597 74.069C62.3216 73.8512 66.2186 72.7211 65.8489 74.279C65.6349 75.1809 64.0312 73.2765 65.6512 73.2413C66.5613 73.2215 67.3496 74.295 67.0719 75.1932C66.8286 75.9805 65.9392 75.2739 66.3307 74.6867C66.7861 74.0036 68.6628 73.7057 69.4068 73.9331C69.7204 74.0289 69.3409 74.47 69.1845 74.5261C68.9265 74.6185 68.5066 74.6165 68.2332 74.5755C67.7477 74.5027 68.7349 73.5329 68.8447 73.476C68.9272 73.4332 69.4075 73.2286 69.4501 73.4204C69.4637 73.482 69.4562 73.7272 69.4562 73.5192C69.4562 73.3082 69.6703 72.9736 69.6539 72.9818C69.0338 73.2919 68.556 73.8365 67.9305 74.1493C67.4558 74.3866 66.9427 74.5647 66.4604 74.7917C65.6669 75.1651 64.7053 75.4877 63.8599 75.7244C63.6119 75.7938 63.6251 75.7026 63.5572 75.5329C63.5254 75.4534 63.3998 75.6025 63.3287 75.6503C63.0065 75.8667 62.6755 76.0633 62.328 76.2371C61.5486 76.6268 60.7988 76.7992 59.9314 76.7992C59.228 76.7992 59.9087 76.4791 60.2093 76.2803C60.9919 75.763 61.8205 75.3055 62.7419 75.0943C62.9347 75.0502 63.4385 74.881 63.2422 75.2735C62.8554 76.047 61.7189 76.5943 61.0185 77.0092C60.5241 77.3021 59.4626 78.0162 58.8813 77.4663C58.317 76.9325 59.8565 75.8909 60.2896 75.8232C60.5048 75.7896 59.3207 76.9749 59.2148 77.0463C58.3125 77.6551 57.1435 78.2046 56.0275 78.1952C55.4759 78.1906 54.1091 77.2856 55.2986 77.1575C55.8227 77.101 57.7213 77.9459 56.8429 78.6646C56.7847 78.7122 56.3319 78.837 56.497 78.6893C56.8021 78.4163 57.4492 78.4631 57.8188 78.467C58.3166 78.4722 58.6555 78.5947 58.9801 78.9735C59.1685 79.1933 59.4065 79.282 59.6966 79.1959C60.7731 78.8763 61.6615 77.9506 62.7357 77.6022C63.0502 77.5002 63.342 77.4156 63.6746 77.3551C64.5073 77.2037 64.8756 76.9115 65.5092 76.3606C66.1692 75.7867 67.0622 75.599 67.7946 75.187C68.1977 74.9603 68.5246 74.4896 68.9683 74.3531C69.0855 74.3171 69.749 74.079 69.7836 73.9578C69.8524 73.7169 70.1839 73.0817 70.4013 72.9077C70.5689 72.7736 70.406 73.4142 70.3457 73.4142C70.3399 73.4142 70.4932 72.8681 70.5681 72.8212C70.92 72.6013 71.2089 72.4064 71.5688 72.2159C71.7055 72.1435 71.9196 72.0266 72.0382 71.9317C72.1858 71.8137 72.4298 71.9521 72.5941 71.8206C73.043 71.4615 73.3701 71.907 73.7925 71.907" stroke="#DBC0F3" stroke-width="2" stroke-linecap="round"/>
<path d="M72.0732 72.9053C71.941 72.8864 72.34 72.8946 72.4735 72.8946C72.597 72.8946 72.7577 72.8743 72.8691 72.938C72.8848 72.9469 72.9099 72.9543 72.9232 72.9647C72.9443 72.9811 72.94 73.0063 72.9547 73.0229C72.9789 73.0502 72.9801 73.0847 73.001 73.1108C73.0159 73.1295 72.9998 73.1846 73.0307 73.1934C73.0641 73.2029 73.0889 73.1402 73.0889 73.1138C73.0889 72.8626 72.7363 72.8091 72.5395 72.8091C72.4518 72.8091 72.3717 72.8069 72.287 72.8281C72.2333 72.8415 72.1805 72.8584 72.129 72.8756C72.0623 72.8978 71.9961 72.9423 71.9443 72.9855C71.8977 73.0243 71.8156 72.9839 71.7679 72.9694C71.7108 72.9522 71.6436 72.9564 71.5838 72.9588C71.5243 72.9611 71.5493 73.1382 71.5493 73.1779C71.5493 73.2262 71.6099 73.25 71.6135 73.2985C71.6165 73.3402 71.6521 73.362 71.6562 73.3971C71.6579 73.4111 71.6767 73.4118 71.6776 73.3971C71.6785 73.3816 71.6748 73.3642 71.6782 73.349C71.6869 73.3098 71.7196 73.2912 71.7418 73.2635C71.7525 73.2501 71.8087 73.2474 71.8273 73.2474C71.8662 73.2474 71.901 73.226 71.9425 73.226C72.0849 73.226 72.2213 73.2526 72.3619 73.2682C72.4214 73.2748 72.4673 73.2801 72.5246 73.2985C72.5879 73.3188 72.6606 73.3033 72.7254 73.3306C72.7457 73.3391 72.7784 73.3375 72.8002 73.3413C72.8455 73.3491 72.8853 73.3677 72.9291 73.3805C72.9397 73.3836 73.0415 73.4176 73.0093 73.4185C72.9456 73.4203 72.8801 73.4213 72.8169 73.4132C72.721 73.4009 72.619 73.3864 72.5228 73.3864C72.4746 73.3864 72.4309 73.3803 72.3833 73.3757C72.3423 73.3718 72.2821 73.369 72.2443 73.352C72.2201 73.3411 72.1407 73.3529 72.1653 73.3431C72.2133 73.3239 72.2725 73.333 72.3239 73.333C72.4349 73.333 72.5465 73.3287 72.6565 73.3413C72.8033 73.358 72.9544 73.3777 73.099 73.4078C73.1316 73.4146 73.226 73.4187 73.1507 73.4316C73.098 73.4405 73.046 73.4399 72.9927 73.4399C72.8756 73.4399 72.7568 73.4457 72.6399 73.4399C72.4828 73.432 72.3275 73.4185 72.1694 73.4185C72.1318 73.4185 72.0965 73.3971 72.0625 73.3971C72.0082 73.3971 71.9337 73.3945 71.8802 73.3811C71.7759 73.355 71.6374 73.3757 71.5303 73.3757C71.487 73.3757 71.2739 73.3666 71.2612 73.4238C71.2547 73.4533 71.2606 73.4905 71.2606 73.5207C71.2606 73.6286 71.267 73.7384 71.2606 73.8462C71.2592 73.871 71.2392 73.8948 71.2392 73.9264C71.2392 73.9541 71.2338 74.0366 71.2398 74.0095C71.256 73.937 71.2808 73.8644 71.3058 73.7951C71.313 73.775 71.3112 73.7605 71.3147 73.7398C71.317 73.7258 71.3347 73.7207 71.3355 73.7072C71.337 73.681 71.3529 73.6601 71.3574 73.6329C71.3681 73.5689 71.3675 73.6585 71.3675 73.6799C71.3675 73.767 71.4573 73.6346 71.4745 73.6003" stroke="#DBC0F3" stroke-linecap="round"/>
<path d="M71.6241 73.1619C71.6241 73.2924 71.5931 73.4789 71.6669 73.5896" stroke="#DBC0F3" stroke-linecap="round"/>
<path d="M48.8329 76.4222C48.8785 76.4008 49.032 76.3825 49.0701 76.4302C49.1134 76.4844 49.1754 76.5645 49.2598 76.5645" stroke="#DBC0F3"/>
<path d="M49.3862 77.1494C49.4713 77.1579 49.5517 77.1653 49.6392 77.1653" stroke="#DBC0F3"/>
<path d="M49.1807 77.1178C49.2674 77.1949 49.3635 77.1811 49.4732 77.1811C49.5191 77.1811 49.5651 77.1811 49.6111 77.1811C49.7117 77.1811 49.7954 77.1178 49.8921 77.1178" stroke="#DBC0F3"/>
<path d="M51.9314 76.5803C51.9314 76.5014 51.9256 76.4062 51.9033 76.3309C51.8871 76.2761 51.8647 76.3764 51.8594 76.4012C51.8407 76.4881 51.8448 76.6028 51.8559 76.691C51.8694 76.7994 51.9385 76.9128 51.9788 77.0142C52.0206 77.1193 52.057 77.2282 52.1053 77.3304C52.2197 77.5722 52.2749 77.8416 52.3653 78.0927C52.463 78.3642 52.6827 78.5407 52.8606 78.7549C53.0334 78.963 53.2951 78.9648 53.5351 78.8972C53.6934 78.8525 53.7494 78.8387 53.7494 78.6662C53.7494 78.5693 53.7494 78.4724 53.7494 78.3755C53.7494 78.3005 53.7756 78.1724 53.7318 78.1067C53.6513 77.986 53.4898 78.0827 53.3946 78.1375C53.3402 78.1687 53.2708 78.2402 53.2049 78.2402C53.165 78.2402 53.1252 78.2402 53.0854 78.2402C52.9628 78.2402 52.857 78.2389 52.7376 78.2086C52.6005 78.1738 52.4714 78.1228 52.3389 78.0821C52.1274 78.0173 51.9271 77.9341 51.7189 77.8608C51.6387 77.8326 51.5881 77.7858 51.5204 77.7423C51.408 77.67 51.3719 77.4656 51.2121 77.4656C51.1066 77.4656 51.0266 77.4393 50.9276 77.4173C50.8618 77.4027 50.7131 77.3161 50.7308 77.2364C50.7465 77.1657 50.7474 77.1326 50.715 77.0625C50.671 76.9671 50.6371 77.0078 50.5473 76.9878C50.4185 76.9592 50.3112 76.9594 50.1925 76.9C50.1676 76.8876 50.0871 76.8817 50.0625 76.8807C50.0064 76.8784 49.9557 76.8649 49.8991 76.8649C49.7076 76.8649 49.529 76.8807 49.3388 76.8807" stroke="#DBC0F3" stroke-linecap="square"/>
<path d="M49.2914 77.3866C49.2673 77.531 49.2756 77.0939 49.2756 76.9474C49.2756 76.9084 49.2574 76.8632 49.244 76.8262C49.2321 76.7935 49.2051 76.7686 49.193 76.7349C49.1915 76.7308 49.1696 76.6725 49.1658 76.6857C49.146 76.7549 49.1817 76.8825 49.2159 76.9439C49.2803 77.0599 49.354 77.1559 49.446 77.2478C49.4858 77.2876 49.5347 77.3331 49.5838 77.3549C49.6626 77.3899 49.5845 77.1609 49.5751 77.109C49.5612 77.0326 49.4537 76.972 49.4495 76.8965C49.446 76.8333 49.3652 76.7522 49.3318 76.6998C49.3201 76.6813 49.2507 76.5874 49.2317 76.5874C49.2159 76.5874 49.237 76.7247 49.2405 76.7349C49.2617 76.7987 49.3072 76.8531 49.3072 76.9202C49.3072 76.9587 49.319 76.9873 49.323 77.023C49.3311 77.0958 49.2494 76.9917 49.2317 76.9597C49.2149 76.9295 49.2124 76.8996 49.1965 76.8719C49.1778 76.8392 49.1408 76.7836 49.1342 76.7472C49.1249 76.6962 49.0876 76.6276 49.0666 76.5803C49.048 76.5385 49.017 76.372 48.991 76.359" stroke="#DBC0F3" stroke-linecap="round"/>
<circle cx="60.5" cy="71.5" r="1.5" fill="#350F0F"/>
</svg>
