<svg width="430" height="415" viewBox="0 0 430 415" fill="none" xmlns="http://www.w3.org/2000/svg">
<circle cx="221.5" cy="208.5" r="172.5" fill="white" stroke="#F2F2F2" stroke-width="40"/>
<path d="M282 168C282 151.822 275.573 136.306 264.134 124.866C252.694 113.427 237.178 107 221 107C204.822 107 189.306 113.427 177.866 124.866C166.427 136.306 160 151.822 160 168L221 168H282Z" fill="#DBC0F3"/>
<circle cx="221" cy="264" r="21" fill="#BB99D9"/>
<circle cx="261" cy="264" r="21" fill="#BB99D9"/>
<circle cx="181" cy="264" r="21" fill="#BB99D9"/>
<path d="M160 168H282V262C282 265.314 279.314 268 276 268H166C162.686 268 160 265.314 160 262V168Z" fill="#DBC0F3"/>
<path d="M199 250C186 266.5 169 268.5 160 250V268H278L281.5 250C268.5 269 252.5 267.5 238.5 250C233.5 267.5 213.5 273.5 199 250Z" fill="#BB99D9"/>
<path d="M160.574 267.489C160.629 268.047 161.401 268.632 161.648 269.125C161.931 269.692 162.296 269.979 162.507 270.612" stroke="#BB99D9" stroke-linecap="round"/>
<path d="M160.425 267.935C160.801 268.029 161.408 269.192 161.73 269.455C162.199 269.838 162.766 270.485 163.25 270.727C163.538 270.871 163.683 271.339 164.06 271.339C164.304 271.339 163.855 270.331 163.845 270.199C163.794 269.526 163.101 268.447 162.623 267.968C162.353 267.698 161.168 267.284 161.168 267.935C161.168 268.487 160.928 269.174 161.615 269.538C161.972 269.727 162.296 270.467 162.623 270.794C163.037 271.208 163.54 271.355 164.143 271.355" stroke="#BB99D9" stroke-linecap="round"/>
<path d="M281.541 250.988V264.961" stroke="#BB99D9" stroke-linecap="round"/>
<path d="M280.842 252.967V265.427" stroke="#BB99D9" stroke-linecap="round"/>
<path d="M280.027 256.169V265.776" stroke="#BB99D9" stroke-linecap="round"/>
<path d="M279.212 260.012V266.591" stroke="#BB99D9" stroke-linecap="round"/>
<path d="M278.339 265.194C278.584 265.711 278.771 266.27 278.947 266.815C278.987 266.94 279.037 267.334 279.037 266.954C279.037 266.462 279.037 265.97 279.037 265.479C279.037 264.765 279.109 265.712 278.843 265.76C278.647 265.796 278.58 264.054 278.575 263.903C278.561 263.517 278.577 263.597 278.568 263.955C278.548 264.755 278.396 265.539 278.348 266.336C278.311 266.959 278.361 266.665 278.494 266.31C278.681 265.81 278.798 265.291 278.976 264.79C279.118 264.389 279.221 264.931 279.235 265.071C279.305 265.774 279.27 266.491 279.27 267.196C279.27 267.569 279.169 267.642 278.866 267.869C278.644 268.035 278.6 267.637 278.455 267.549C278.3 267.455 278.147 267.318 278.248 267.115C278.528 266.556 279.377 266.176 279.885 265.88C280.117 265.744 280.429 265.62 280.629 265.44C280.635 265.434 280.758 265.253 280.758 265.349C280.758 265.707 280.473 266.13 280.202 266.346C280.045 266.47 279.86 266.619 280.144 266.462C280.365 266.339 280.846 266.119 280.959 265.893" stroke="#BB99D9" stroke-width="2"/>
<circle cx="193.5" cy="170.5" r="12.5" fill="white"/>
<circle cx="244.5" cy="170.5" r="12.5" fill="white"/>
<circle cx="193.5" cy="170.5" r="9.5" fill="#350F0F"/>
<circle cx="244.5" cy="170.5" r="9.5" fill="#350F0F"/>
<mask id="path-19-inside-1_107_65" fill="white">
<path d="M232 180C232 183.093 230.897 186.085 228.889 188.438C226.881 190.791 224.1 192.351 221.045 192.838C217.991 193.325 214.862 192.706 212.223 191.094C209.583 189.481 207.605 186.98 206.644 184.04L219 180H232Z"/>
</mask>
<path d="M232 180C232 183.093 230.897 186.085 228.889 188.438C226.881 190.791 224.1 192.351 221.045 192.838C217.991 193.325 214.862 192.706 212.223 191.094C209.583 189.481 207.605 186.98 206.644 184.04L219 180H232Z" stroke="black" stroke-width="2" mask="url(#path-19-inside-1_107_65)"/>
<path d="M208.999 183.354C208.679 183.354 209.644 183.405 209.944 183.515C210.205 183.611 210.556 183.799 210.833 183.799C211.111 183.799 211.389 183.799 211.667 183.799C212.176 183.799 212.321 183.92 212.229 183.416C212.142 182.937 212.406 182.386 212.773 182.088C213.439 181.547 213.224 182.926 213.224 183.274C213.224 184.074 213.156 183.804 212.724 183.348C212.43 183.04 212.349 182.687 211.89 182.687C211.667 182.687 210.695 182.465 211.136 182.465C212.082 182.465 212.462 182.704 213.113 183.354C213.562 183.804 213.812 184.82 214.336 185.109C214.846 185.389 214.655 184.164 214.62 183.997C214.462 183.242 214.179 180.95 214.36 181.699C214.519 182.352 214.482 184.984 213.162 184.528C211.971 184.117 212.273 182.517 213.15 182.02C213.886 181.603 216.267 181.058 216.485 182.366C216.592 183.007 215.518 184.354 215.454 183.453C215.373 182.321 216.671 181.575 217.708 181.761C219.023 181.997 217.543 183.552 216.745 183.552C216.211 183.552 216.215 182.746 216.312 182.372C216.498 181.663 217.446 181.315 218.067 181.149C218.677 180.987 219.619 180.758 220.253 180.933C221.082 181.162 219.508 182.247 219.345 182.329C218.67 182.67 217.943 182.805 217.189 182.811C216.605 182.815 215.506 182.849 215.046 182.372C214.295 181.594 215.4 180.346 216.115 180.074C216.908 179.773 220.46 179.267 220.154 180.711C220.052 181.194 219.85 181.7 219.388 181.946C219.106 182.096 219.409 181.775 219.419 181.767C219.813 181.456 220.296 181.249 220.76 181.069C221.322 180.851 225.219 179.721 224.849 181.279C224.635 182.181 223.031 180.276 224.651 180.241C225.561 180.221 226.35 181.295 226.072 182.193C225.829 182.98 224.939 182.274 225.331 181.687C225.786 181.004 227.663 180.706 228.407 180.933C228.72 181.029 228.341 181.47 228.184 181.526C227.926 181.619 227.507 181.616 227.233 181.575C226.748 181.503 227.735 180.533 227.845 180.476C227.927 180.433 228.407 180.229 228.45 180.42C228.464 180.482 228.456 180.727 228.456 180.519C228.456 180.308 228.67 179.974 228.654 179.982C228.034 180.292 227.556 180.837 226.931 181.149C226.456 181.387 225.943 181.565 225.46 181.792C224.667 182.165 223.705 182.488 222.86 182.724C222.612 182.794 222.625 182.703 222.557 182.533C222.525 182.453 222.4 182.603 222.329 182.65C222.007 182.867 221.676 183.063 221.328 183.237C220.549 183.627 219.799 183.799 218.931 183.799C218.228 183.799 218.909 183.479 219.209 183.28C219.992 182.763 220.821 182.305 221.742 182.094C221.935 182.05 222.438 181.881 222.242 182.273C221.855 183.047 220.719 183.594 220.019 184.009C219.524 184.302 218.463 185.016 217.881 184.466C217.317 183.933 218.857 182.891 219.29 182.823C219.505 182.79 218.321 183.975 218.215 184.046C217.312 184.655 216.144 185.205 215.028 185.195C214.476 185.191 213.109 184.286 214.299 184.157C214.823 184.101 216.721 184.946 215.843 185.665C215.785 185.712 215.332 185.837 215.497 185.689C215.802 185.416 216.449 185.463 216.819 185.467C217.317 185.472 217.655 185.595 217.98 185.973C218.169 186.193 218.406 186.282 218.697 186.196C219.773 185.876 220.662 184.951 221.736 184.602C222.05 184.5 222.342 184.416 222.675 184.355C223.507 184.204 223.876 183.912 224.509 183.361C225.169 182.787 226.062 182.599 226.795 182.187C227.198 181.96 227.525 181.49 227.968 181.353C228.085 181.317 228.749 181.079 228.784 180.958C228.852 180.717 229.184 180.082 229.401 179.908C229.569 179.774 229.406 180.414 229.346 180.414C229.34 180.414 229.493 179.868 229.568 179.821C229.92 179.601 230.209 179.406 230.569 179.216C230.706 179.143 230.92 179.027 231.038 178.932C231.186 178.814 231.43 178.952 231.594 178.821C232.043 178.461 232.37 178.907 232.792 178.907" stroke="#DBC0F3" stroke-width="2" stroke-linecap="round"/>
<path d="M231.073 179.905C230.941 179.886 231.34 179.895 231.474 179.895C231.597 179.895 231.758 179.874 231.869 179.938C231.885 179.947 231.91 179.954 231.923 179.965C231.944 179.981 231.94 180.006 231.955 180.023C231.979 180.05 231.98 180.085 232.001 180.111C232.016 180.129 232 180.185 232.031 180.193C232.064 180.203 232.089 180.14 232.089 180.114C232.089 179.863 231.736 179.809 231.539 179.809C231.452 179.809 231.372 179.807 231.287 179.828C231.233 179.842 231.18 179.858 231.129 179.876C231.062 179.898 230.996 179.942 230.944 179.985C230.898 180.024 230.816 179.984 230.768 179.969C230.711 179.952 230.644 179.956 230.584 179.959C230.524 179.961 230.549 180.138 230.549 180.178C230.549 180.226 230.61 180.25 230.613 180.299C230.617 180.34 230.652 180.362 230.656 180.397C230.658 180.411 230.677 180.412 230.678 180.397C230.679 180.382 230.675 180.364 230.678 180.349C230.687 180.31 230.72 180.291 230.742 180.263C230.752 180.25 230.809 180.247 230.827 180.247C230.866 180.247 230.901 180.226 230.943 180.226C231.085 180.226 231.221 180.253 231.362 180.268C231.421 180.275 231.467 180.28 231.525 180.299C231.588 180.319 231.661 180.303 231.725 180.331C231.746 180.339 231.778 180.337 231.8 180.341C231.846 180.349 231.885 180.368 231.929 180.38C231.94 180.384 232.042 180.418 232.009 180.418C231.946 180.42 231.88 180.421 231.817 180.413C231.721 180.401 231.619 180.386 231.523 180.386C231.475 180.386 231.431 180.38 231.383 180.376C231.342 180.372 231.282 180.369 231.244 180.352C231.22 180.341 231.141 180.353 231.165 180.343C231.213 180.324 231.272 180.333 231.324 180.333C231.435 180.333 231.546 180.329 231.656 180.341C231.803 180.358 231.954 180.378 232.099 180.408C232.132 180.415 232.226 180.419 232.151 180.432C232.098 180.441 232.046 180.44 231.993 180.44C231.876 180.44 231.757 180.446 231.64 180.44C231.483 180.432 231.327 180.418 231.169 180.418C231.132 180.418 231.096 180.397 231.063 180.397C231.008 180.397 230.934 180.394 230.88 180.381C230.776 180.355 230.637 180.376 230.53 180.376C230.487 180.376 230.274 180.367 230.261 180.424C230.255 180.453 230.261 180.49 230.261 180.521C230.261 180.629 230.267 180.738 230.261 180.846C230.259 180.871 230.239 180.895 230.239 180.926C230.239 180.954 230.234 181.037 230.24 181.01C230.256 180.937 230.281 180.864 230.306 180.795C230.313 180.775 230.311 180.76 230.315 180.74C230.317 180.726 230.335 180.721 230.335 180.707C230.337 180.681 230.353 180.66 230.357 180.633C230.368 180.569 230.368 180.658 230.368 180.68C230.368 180.767 230.457 180.635 230.474 180.6" stroke="#DBC0F3" stroke-linecap="round"/>
<path d="M230.624 180.162C230.624 180.292 230.593 180.479 230.667 180.59" stroke="#DBC0F3" stroke-linecap="round"/>
<path d="M207.833 183.422C207.878 183.401 208.032 183.383 208.07 183.43C208.113 183.484 208.175 183.565 208.26 183.565" stroke="#DBC0F3"/>
<path d="M208.386 184.149C208.471 184.158 208.552 184.165 208.639 184.165" stroke="#DBC0F3"/>
<path d="M208.181 184.118C208.267 184.195 208.364 184.181 208.473 184.181C208.519 184.181 208.565 184.181 208.611 184.181C208.712 184.181 208.795 184.118 208.892 184.118" stroke="#DBC0F3"/>
<path d="M210.931 183.58C210.931 183.501 210.926 183.406 210.903 183.331C210.887 183.276 210.865 183.376 210.859 183.401C210.841 183.488 210.845 183.603 210.856 183.691C210.869 183.799 210.938 183.913 210.979 184.014C211.021 184.119 211.057 184.228 211.105 184.33C211.22 184.572 211.275 184.842 211.365 185.093C211.463 185.364 211.683 185.541 211.861 185.755C212.033 185.963 212.295 185.965 212.535 185.897C212.693 185.852 212.749 185.839 212.749 185.666C212.749 185.569 212.749 185.472 212.749 185.375C212.749 185.301 212.776 185.172 212.732 185.107C212.651 184.986 212.49 185.083 212.395 185.137C212.34 185.169 212.271 185.24 212.205 185.24C212.165 185.24 212.125 185.24 212.085 185.24C211.963 185.24 211.857 185.239 211.738 185.209C211.6 185.174 211.471 185.123 211.339 185.082C211.127 185.017 210.927 184.934 210.719 184.861C210.639 184.833 210.588 184.786 210.52 184.742C210.408 184.67 210.372 184.466 210.212 184.466C210.107 184.466 210.027 184.439 209.928 184.417C209.862 184.403 209.713 184.316 209.731 184.236C209.747 184.166 209.747 184.133 209.715 184.062C209.671 183.967 209.637 184.008 209.547 183.988C209.418 183.959 209.311 183.959 209.192 183.9C209.168 183.888 209.087 183.882 209.062 183.881C209.006 183.878 208.956 183.865 208.899 183.865C208.708 183.865 208.529 183.881 208.339 183.881" stroke="#DBC0F3" stroke-linecap="square"/>
<path d="M208.291 184.387C208.267 184.531 208.276 184.094 208.276 183.947C208.276 183.908 208.257 183.863 208.244 183.826C208.232 183.794 208.205 183.769 208.193 183.735C208.192 183.731 208.17 183.672 208.166 183.686C208.146 183.755 208.182 183.882 208.216 183.944C208.28 184.06 208.354 184.156 208.446 184.248C208.486 184.288 208.535 184.333 208.584 184.355C208.663 184.39 208.584 184.161 208.575 184.109C208.561 184.033 208.454 183.972 208.449 183.896C208.446 183.833 208.365 183.752 208.332 183.7C208.32 183.681 208.251 183.587 208.232 183.587C208.216 183.587 208.237 183.725 208.24 183.735C208.262 183.799 208.307 183.853 208.307 183.92C208.307 183.959 208.319 183.987 208.323 184.023C208.331 184.096 208.249 183.992 208.232 183.96C208.215 183.929 208.212 183.9 208.197 183.872C208.178 183.839 208.141 183.784 208.134 183.747C208.125 183.696 208.088 183.628 208.067 183.58C208.048 183.538 208.017 183.372 207.991 183.359" stroke="#DBC0F3" stroke-linecap="round"/>
<circle cx="219.5" cy="178.5" r="1.5" fill="#350F0F"/>
</svg>
