<svg width="77" height="60" viewBox="0 0 77 60" fill="none" xmlns="http://www.w3.org/2000/svg">
<circle cx="40" cy="31" r="22" fill="#5EE1BB"/>
<path d="M40 17C34.4794 17 30 21.0319 30 26C30 34 40 45 40 45C40 45 50 34 50 26C50 21.0319 45.5206 17 40 17ZM40 31C39.2089 31 38.4355 30.7654 37.7777 30.3259C37.1199 29.8864 36.6072 29.2616 36.3045 28.5307C36.0017 27.7998 35.9225 26.9956 36.0769 26.2196C36.2312 25.4437 36.6122 24.731 37.1716 24.1716C37.731 23.6122 38.4437 23.2312 39.2196 23.0769C39.9956 22.9225 40.7998 23.0017 41.5307 23.3045C42.2616 23.6072 42.8864 24.1199 43.3259 24.7777C43.7654 25.4355 44 26.2089 44 27C43.9988 28.0605 43.577 29.0773 42.8271 29.8271C42.0773 30.577 41.0605 30.9988 40 31Z" fill="black"/>
</svg>
