<svg width="76" height="82" viewBox="0 0 76 82" fill="none" xmlns="http://www.w3.org/2000/svg">
<circle cx="37" cy="41" r="22" fill="#5EE1BB"/>
<path d="M48 36.6379V46.4375C48 47.3492 47.6378 48.2235 46.9932 48.8682C46.3485 49.5128 45.4742 49.875 44.5625 49.875H29.4375C28.5258 49.875 27.6515 49.5128 27.0068 48.8682C26.3622 48.2235 26 47.3492 26 46.4375V36.6379L36.6508 42.9051C36.7566 42.9675 36.8772 43.0004 37 43.0004C37.1228 43.0004 37.2434 42.9675 37.3492 42.9051L48 36.6379ZM44.5625 32C45.4083 31.9999 46.2245 32.3116 46.8549 32.8755C47.4853 33.4395 47.8857 34.216 47.9794 35.0566L37 41.515L26.0206 35.0566C26.1143 34.216 26.5147 33.4395 27.1451 32.8755C27.7755 32.3116 28.5917 31.9999 29.4375 32H44.5625Z" fill="black"/>
</svg>
