<svg width="49" height="11" viewBox="0 0 49 11" fill="none" xmlns="http://www.w3.org/2000/svg">
	<path d="M1.33826 0.610809C1.89519 0.610809 2.43001 0.767407 2.98224 0.793092C3.50341 0.817333 4.0313 0.814673 4.55056 0.861878C5.04769 0.907072 5.56942 0.876385 6.06386 0.9513C6.50001 1.01738 6.97427 0.978742 7.39831 1.07512C7.80007 1.16642 8.25371 1.10074 8.66397 1.10607C9.01771 1.11066 9.36552 1.16798 9.72327 1.16798C10.358 1.16798 10.9898 1.29179 11.6149 1.29179" stroke="black" stroke-linecap="round" />
	<path d="M7.2195 3.0871C7.2195 3.30994 7.06827 3.53707 7.03034 3.76464C6.99075 4.00216 6.97187 4.23729 6.97187 4.49721C6.97187 5.23816 6.78615 5.95886 6.78615 6.70524C6.78615 7.02048 6.95359 8.79172 6.72424 8.9064" stroke="black" stroke-linecap="round" />
	<path d="M6.35278 8.84451C6.35821 8.80109 7.2071 8.67284 7.28139 8.66223C7.62556 8.61307 7.87875 8.37481 8.21001 8.27359C8.58771 8.15818 9.26075 7.78588 9.47567 7.44816C9.71033 7.07941 10.1343 6.85717 10.3458 6.45764C10.4281 6.3023 10.706 5.85822 10.535 5.68724C10.2349 5.38715 9.65488 5.87085 9.41376 6.02429C8.6688 6.49835 8.58145 7.34149 8.58145 8.16353C8.58145 8.94444 9.55427 9.03024 10.1429 9.03024C10.6687 9.03024 11.0101 8.89122 11.498 8.71382C11.9533 8.54825 12.457 8.45101 12.9012 8.25983C13.2936 8.09098 13.7955 7.96287 14.1497 7.72674C14.4586 7.52079 15.224 7.25751 15.2675 6.80157C15.313 6.32358 13.9836 6.49203 13.8161 6.49203C13.3285 6.49203 12.9713 6.70161 12.516 6.82908C12.2615 6.90035 11.9683 6.91968 11.7869 7.13862C11.5651 7.40625 11.4348 7.48835 11.3363 7.82304C11.284 8.00094 11.2112 8.32316 11.2572 8.50746C11.4099 9.11802 11.9121 9.30607 12.461 9.46015C12.7899 9.55247 13.1868 9.63357 13.534 9.58396C13.8065 9.54504 13.9492 9.38663 14.1806 9.26411C14.5371 9.07539 14.7152 8.71268 15.0473 8.53154C15.1194 8.49221 15.5151 7.74467 15.5151 7.97781C15.5151 8.65815 16.1066 8.53498 16.6604 8.53498C16.9716 8.53498 17.4139 8.18111 17.6818 8.02596C17.7072 8.01126 17.8378 7.87006 17.8607 7.89871C17.9174 7.96958 17.8676 8.26132 17.8676 8.34582C17.8676 8.52904 17.8063 8.86345 17.8813 9.03024C18.0154 9.32823 18.7038 9.23762 18.9234 9.14717C19.385 8.95711 20.1326 8.5288 20.3301 8.02596C20.3963 7.85734 20.5811 7.65945 20.5915 7.48255C20.603 7.28691 20.5296 7.87125 20.5296 8.06723C20.5296 8.60247 20.6932 8.78261 21.245 8.78261C21.4234 8.78261 21.6221 8.80633 21.7987 8.77917C21.9958 8.74885 22.2624 8.43316 22.4006 8.30111C22.4926 8.21315 22.8144 7.854 22.944 7.854C23.1887 7.854 23.1994 8.40258 23.3498 8.53154C23.569 8.71939 23.6751 8.9957 23.9964 9.14029C24.259 9.25844 24.7275 9.10436 24.9869 9.03024" stroke="black" stroke-linecap="round" />
	<path d="M31.3015 6.86346C31.675 6.82611 32.0249 6.00482 31.7555 5.73537C31.5678 5.54767 31.2044 5.52243 30.9507 5.50493C30.2723 5.45815 29.595 5.59585 28.9628 5.83855C28.16 6.14669 27.587 6.95336 27.587 7.79207C27.587 8.3054 27.6348 8.76577 28.1752 8.99239C28.7256 9.22322 29.5091 9.09977 30.0771 9.03022C31.0957 8.90549 31.664 8.27398 32.2782 7.51693C32.3866 7.38333 32.6313 7.066 32.5981 6.8669C32.5435 6.53928 32.4293 7.03307 32.4158 7.09733C32.2992 7.65116 32.5083 8.21338 33.1587 8.22542C34.0914 8.24269 34.8257 7.97791 35.3805 7.20739C35.8662 6.5328 36.0064 5.53375 36.0064 4.73109C36.0064 4.4382 35.9832 3.96707 35.6969 3.78184C35.4138 3.59866 35.1776 4.20384 35.0366 4.39404C34.5818 5.00748 34.3541 5.5303 34.2868 6.29253C34.2389 6.83511 34.273 7.39162 34.273 7.93652C34.273 8.55127 34.19 8.99296 34.6135 9.46357C35.0099 9.90394 35.638 8.88125 35.7554 8.62438C35.9193 8.26579 36.0258 7.89841 36.2266 7.5582C36.3745 7.30755 36.6077 7.10531 36.7528 6.86346C36.7976 6.78868 37.0425 6.76469 37.1208 6.81531C37.2118 6.8742 37.1966 7.08609 37.2205 7.17643C37.2758 7.38526 37.4071 7.57441 37.4269 7.79207C37.465 8.21123 37.2634 9.00385 37.5816 9.33976C38.1371 9.92609 39.242 7.84709 39.4114 7.5582C39.4554 7.48302 39.6521 7.08334 39.6521 7.02167C39.6521 6.61681 39.3593 7.79318 39.3494 8.19791C39.3357 8.75965 39.3447 9.27785 40.0304 9.27785C40.8176 9.27785 41.4024 8.8373 42.0734 8.47305C42.5857 8.19493 42.9418 7.72755 43.1602 7.19363C43.326 6.78838 43.5426 5.83615 42.8644 5.81103C42.0938 5.78249 41.984 6.36732 41.9461 7.04918C41.936 7.23074 41.715 8.45965 42.2591 8.18759C42.7754 7.92943 43.0093 7.28554 43.2496 6.80499C43.9638 5.3767 44.925 4.07557 45.664 2.65031C45.9298 2.1377 46.1788 1.58313 46.2693 1.00977C46.2858 0.905468 46.3107 0.404326 46.3106 0.404449C46.0297 0.685315 46.1593 1.43641 46.1593 1.78705C46.1593 2.5561 46.1325 3.32664 46.2281 4.09138C46.3307 4.91223 46.5347 5.64092 46.854 6.39571C47.0521 6.86389 47.1864 7.34189 47.4284 7.78863C47.6117 8.12717 47.8897 8.35142 48.1128 8.64502C48.2547 8.8318 48.2779 8.71828 48.3879 8.53496" stroke="black" stroke-linecap="round" />
	<path d="M46.1593 4.88242C45.9694 5.2175 45.7502 5.54325 45.7294 5.93828C45.7127 6.25567 45.7259 6.57656 45.7259 6.89441C45.7259 7.25116 45.6827 7.74242 45.977 8.01218C46.2364 8.24997 46.9232 8.9671 47.1498 8.28732" stroke="black" stroke-linecap="round" />
</svg>
